Coordinates
version=1
nRows=24
nColumns=33
inDegrees=yes

Units are S.I. units (second, meters, Newtons, ...)
Angles are in degrees.

endheader
time	ground_thorax_rot_x	ground_thorax_rot_y	ground_thorax_rot_z	ground_thorax_tx	ground_thorax_ty	ground_thorax_tz	clav_prot_r	clav_elev_r	scapula_abduction_r	scapula_elevation_r	scapula_upward_rot_r	scapula_winging_r	shoulder_elv_r	plane_of_elev_r	axial_rot_r	elbow_flexion_r	pro_sup_r	wrist_flex_r	wrist_dev_r	clav_prot_l	clav_elev_l	scapula_abduction_l	scapula_elevation_l	scapula_upward_rot_l	scapula_winging_l	shoulder_elv_l	plane_of_elev_l	axial_rot_l	elbow_flexion_l	pro_sup_l	wrist_flex_l	wrist_dev_l	
3.8700	-38.626382	-15.179929	19.944367	-43.237245	789.071587	-36.247908	24.186326	-45.000000	34.733928	-45.000000	-44.999994	-2615.137977	-2445.877336	20.217884	-151.426335	1440.544783	-192.116270	13.027731	14.668152	2.837707	28.424768	-27.731270	-45.000000	-45.000000	-2804.876791	-1705.892313	17.364790	-180.000000	1802.124539	183.840074	12.082015	-14.896560	
3.8800	-38.793327	-14.836224	19.440886	-46.842271	791.410268	-36.462254	24.118679	-45.000000	34.677085	-45.000000	-44.999989	-2615.317181	-2445.761259	20.274079	-151.509567	1440.517000	-192.406654	13.055174	14.703891	2.828656	28.481900	-27.811382	-45.000000	-45.000000	-2804.669989	-1705.778973	17.411583	-180.000000	1802.088331	184.262284	12.088821	-15.044324	
3.8900	-38.957403	-14.492332	18.934244	-50.396545	793.827308	-36.685150	24.045135	-45.000000	34.611099	-45.000000	-44.999981	-2615.491855	-2445.642329	20.334893	-151.593874	1440.490823	-192.693161	13.088701	14.736098	2.823909	28.537577	-27.896290	-45.000000	-45.000000	-2804.457403	-1705.667061	17.463743	-180.000000	1802.054401	184.683988	12.100649	-15.189847	
3.9000	-39.111195	-14.164956	18.441351	-53.895695	796.321156	-36.917978	23.975289	-45.000000	34.554875	-45.000000	-44.999965	-2615.671768	-2445.524240	20.397297	-151.683110	1440.471698	-192.970752	13.127665	14.767440	2.799665	28.600432	-27.979784	-45.000000	-45.000000	-2804.234646	-1705.559940	17.522516	-180.000000	1802.034261	185.104656	12.120529	-15.331331	
3.9100	-39.259171	-13.840561	17.945255	-57.334861	798.890209	-37.162197	23.908481	-45.000000	34.505387	-45.000000	-44.999938	-2615.853865	-2445.405114	20.464752	-151.765869	1440.446705	-193.233902	13.177919	14.794650	2.774646	28.661413	-28.062392	-45.000000	-45.000000	-2804.008848	-1705.451230	17.584445	-180.000000	1802.011057	185.519489	12.142029	-15.472276	
3.9200	-39.401330	-13.519758	17.449668	-60.708307	801.532495	-37.419303	23.845377	-45.000000	34.463475	-45.000000	-44.999888	-2616.037807	-2445.287321	20.534699	-151.844348	1440.418105	-193.481362	13.238938	14.816738	2.748794	28.722552	-28.145260	-45.000000	-45.000000	-2803.784004	-1705.338522	17.646913	-180.000000	1801.989838	185.924130	12.162673	-15.611653	
3.9300	-39.538886	-13.198478	16.951480	-64.009311	804.245401	-37.690714	23.781397	-45.000000	34.422638	-45.000000	-44.999800	-2616.220218	-2445.168615	20.606453	-151.923704	1440.381736	-193.717112	13.311222	14.830421	2.734258	28.779741	-28.230833	-45.000000	-45.000000	-2803.564932	-1705.221495	17.703551	-180.000000	1801.963082	186.310017	12.177686	-15.751396	
3.9400	-39.660383	-12.898969	16.475961	-67.230215	807.024853	-37.977568	23.726877	-45.000000	34.401875	-45.000000	-44.999642	-2616.410248	-2445.052366	20.675171	-152.015426	1440.349516	-193.951265	13.387137	14.838092	2.701386	28.842710	-28.314049	-45.000000	-45.000000	-2803.346449	-1705.110506	17.752039	-180.000000	1801.943993	186.676049	12.190895	-15.890531	
3.9500	-39.765182	-12.619718	16.024143	-70.362977	809.864880	-38.280487	23.680027	-45.000000	34.395786	-45.000000	-44.999359	-2616.606636	-2444.936986	20.741407	-152.125376	1440.320458	-194.195491	13.462510	14.841125	2.654929	28.910836	-28.394060	-45.000000	-45.000000	-2803.128271	-1705.005625	17.793196	-180.000000	1801.925491	187.018661	12.202016	-16.031205	
3.9600	-39.856999	-12.355764	15.588419	-73.399645	812.756990	-38.599384	23.637434	-45.000000	34.402106	-45.000000	-44.998851	-2616.802659	-2444.824047	20.806657	-152.252082	1440.295934	-194.457597	13.532897	14.841292	2.600568	28.983793	-28.473587	-45.000000	-45.000000	-2802.913126	-1704.903670	17.826361	-180.000000	1801.907144	187.334213	12.210292	-16.173081	
3.9700	-39.939273	-12.098749	15.161252	-76.333219	815.690475	-38.933425	23.594806	-45.000000	34.412350	-45.000000	-44.997942	-2616.994308	-2444.713458	20.873206	-152.397188	1440.271029	-194.743507	13.597468	14.837745	2.548966	29.057907	-28.551893	-45.000000	-45.000000	-2802.704251	-1704.799253	17.854444	-180.000000	1801.883252	187.620540	12.212990	-16.316716	
3.9800	-40.020825	-11.827297	14.714120	-79.158181	818.652683	-39.281205	23.541561	-45.000000	34.425650	-45.000000	-44.996314	-2617.169124	-2444.604754	20.939950	-152.545336	1440.228439	-195.050467	13.659322	14.832835	2.523547	29.125082	-28.637608	-45.000000	-45.000000	-2802.512937	-1704.684415	17.870665	-180.000000	1801.842381	187.874543	12.204361	-16.461165	
3.9900	-40.102596	-11.541439	14.250613	-81.871204	821.630003	-39.641072	23.483175	-45.000000	34.432387	-45.000000	-44.993397	-2617.327954	-2444.497924	21.013098	-152.705626	1440.172964	-195.377705	13.717630	14.825718	2.522971	29.183278	-28.726919	-45.000000	-45.000000	-2802.332922	-1704.559572	17.887523	-180.000000	1801.785700	188.100413	12.187405	-16.606768	
4.0000	-40.182070	-11.245353	13.775519	-84.471704	824.608919	-40.011569	23.417894	-45.000000	34.437195	-45.000000	-44.988172	-2617.471300	-2444.390666	21.085465	-152.870278	1440.098774	-195.721166	13.774315	14.817309	2.548188	29.232009	-28.822301	-45.000000	-45.000000	-2802.166681	-1704.429582	17.895734	-180.000000	1801.708030	188.300618	12.159276	-16.753413	
4.0100	-40.252846	-10.956421	13.318259	-86.961618	827.576342	-40.391600	23.358726	-45.000000	34.432208	-45.000000	-44.978813	-2617.612802	-2444.284551	21.165436	-153.053770	1440.027525	-196.082841	13.825154	14.804904	2.573661	29.277349	-28.914591	-45.000000	-45.000000	-2801.996931	-1704.301209	17.916693	-180.000000	1801.626303	188.484893	12.129980	-16.899493	
4.0200	-40.311936	-10.677432	12.880121	-89.345734	830.520701	-40.780643	23.296734	-45.000000	34.429829	-45.000000	-44.962046	-2617.755158	-2444.179867	21.244624	-153.245399	1439.952366	-196.461030	13.872494	14.791268	2.596864	29.324819	-29.007935	-45.000000	-45.000000	-2801.823221	-1704.180064	17.941983	-180.000000	1801.536783	188.655202	12.097682	-17.046125	
4.0300	-40.351050	-10.435522	12.495962	-91.630090	833.430739	-41.178281	23.250476	-45.000000	34.438221	-45.000000	-44.932017	-2617.914087	-2444.084550	21.330008	-153.460186	1439.903549	-196.858774	13.908744	14.776979	2.575895	29.387416	-29.091845	-45.000000	-45.000000	-2801.624883	-1704.077757	17.990677	-180.000000	1801.461753	188.823701	12.074221	-17.192765	
4.0400	-40.373871	-10.216691	12.148289	-93.821069	836.295392	-41.583838	23.202909	-45.000000	34.461905	-45.000000	-44.878210	-2618.082818	-2443.998212	21.410774	-153.677375	1439.865431	-197.271019	13.939080	14.762929	2.529991	29.462739	-29.172748	-45.000000	-45.000000	-2801.417096	-1703.991742	18.046359	-180.000000	1801.387937	188.987272	12.049346	-17.339336	
4.0500	-40.384445	-10.011311	11.827914	-95.922247	839.100912	-41.995459	23.157587	-45.000000	34.495499	-45.000000	-44.781877	-2618.258455	-2443.924261	21.492966	-153.899049	1439.849848	-197.691788	13.962128	14.747567	2.458336	29.547377	-29.249141	-45.000000	-45.000000	-2801.204952	-1703.915837	18.117840	-180.000000	1801.326230	189.143904	12.023139	-17.481045	
4.0600	-40.389253	-9.798872	11.503127	-97.934472	841.832272	-42.410173	23.097798	-45.000000	34.544547	-45.000000	-44.635748	-2618.427564	-2443.860474	21.563959	-154.110801	1439.834242	-198.109234	13.985223	14.733248	2.390016	29.632023	-29.328378	-45.000000	-45.000000	-2801.010514	-1703.844146	18.182753	-180.000000	1801.258146	189.278122	11.982170	-17.617368	
4.0700	-40.390286	-9.576903	11.167730	-99.854371	844.472018	-42.823630	23.033973	-45.000000	34.608824	-45.000000	-44.425950	-2618.587097	-2443.809183	21.626245	-154.324738	1439.827576	-198.513831	14.006454	14.721059	2.322733	29.711347	-29.404629	-45.000000	-45.000000	-2800.840598	-1703.772896	18.243129	-180.000000	1801.186855	189.380688	11.923697	-17.745912	
4.0800	-40.393618	-9.321960	10.792826	-101.676889	847.004099	-43.230964	22.950170	-45.000000	34.683345	-45.000000	-44.142222	-2618.724397	-2443.766631	21.668861	-154.531222	1439.808695	-198.891822	14.032126	14.712711	2.288717	29.772303	-29.483761	-45.000000	-45.000000	-2800.714249	-1703.696011	18.283144	-180.000000	1801.091229	189.434384	11.836456	-17.865874	
4.0900	-40.400573	-9.018044	10.360311	-103.395980	849.414514	-43.627088	22.847798	-45.000000	34.769842	-45.000000	-43.745825	-2618.835331	-2443.736579	21.691312	-154.752746	1439.791801	-199.234925	14.059541	14.709472	2.279794	29.814027	-29.565533	-45.000000	-45.000000	-2800.637513	-1703.608473	18.311518	-180.000000	1800.975241	189.432749	11.717221	-17.978675	
4.1000	-40.415082	-8.669292	9.875350	-105.008278	851.695656	-44.007706	22.720577	-45.000000	34.855223	-45.000000	-43.263046	-2618.916836	-2443.720208	21.699015	-154.985414	1439.772314	-199.537429	14.094735	14.708159	2.290912	29.839861	-29.653030	-45.000000	-45.000000	-2800.594443	-1703.513046	18.338309	-180.000000	1800.844921	189.374908	11.572498	-18.084283	
